{
 "cells": [
  {
   "cell_type": "code",
   "execution_count": 1,
   "id": "605c45ed-14c5-42b5-9337-b29c60807323",
   "metadata": {
    "vscode": {
     "languageId": "r"
    }
   },
   "outputs": [
    {
     "name": "stderr",
     "output_type": "stream",
     "text": [
      "Warning message:\n",
      "“package ‘Seurat’ was built under R version 4.4.3”\n",
      "Loading required package: SeuratObject\n",
      "\n",
      "Warning message:\n",
      "“package ‘SeuratObject’ was built under R version 4.4.3”\n",
      "Loading required package: sp\n",
      "\n",
      "\n",
      "Attaching package: ‘SeuratObject’\n",
      "\n",
      "\n",
      "The following objects are masked from ‘package:base’:\n",
      "\n",
      "    intersect, t\n",
      "\n",
      "\n",
      "\n",
      "Attaching package: ‘anndata’\n",
      "\n",
      "\n",
      "The following object is masked from ‘package:SeuratObject’:\n",
      "\n",
      "    Layers\n",
      "\n",
      "\n"
     ]
    }
   ],
   "source": [
    "library(SPARK)\n",
    "library(Seurat)\n",
    "library(anndata)\n",
    "library(reticulate)\n",
    "use_condaenv(condaenv = \"/home/bingxing2/ailab/scxlab0179/.conda/envs/bio/\",required = TRUE)"
   ]
  },
  {
   "cell_type": "code",
   "execution_count": 26,
   "id": "e3fd17cc-6ad8-439a-a64f-65a583c51edf",
   "metadata": {
    "vscode": {
     "languageId": "r"
    }
   },
   "outputs": [
    {
     "name": "stderr",
     "output_type": "stream",
     "text": [
      "Warning message:\n",
      "“Data is of class dgRMatrix. Coercing to dgCMatrix.”\n"
     ]
    },
    {
     "data": {
      "text/plain": [
       "An object of class Seurat \n",
       "27123 features across 14107 samples within 1 assay \n",
       "Active assay: RNA (27123 features, 0 variable features)\n",
       " 1 layer present: counts"
      ]
     },
     "metadata": {},
     "output_type": "display_data"
    }
   ],
   "source": [
    "data <- read_h5ad(\"/home/bingxing2/ailab/group/ai4bio/sunjianle/mouse_pmc/rna_imputed.h5ad\")\n",
    "seurat_obj <- CreateSeuratObject(counts = t(data$X), meta.data = data$obs)\n",
    "seurat_obj"
   ]
  },
  {
   "cell_type": "code",
   "execution_count": 27,
   "id": "9c7bfbc8-b8b9-4d01-a470-2ff6f6611f8b",
   "metadata": {
    "vscode": {
     "languageId": "r"
    }
   },
   "outputs": [
    {
     "name": "stderr",
     "output_type": "stream",
     "text": [
      "Normalizing layer: counts\n",
      "\n",
      "Finding variable features for layer counts\n",
      "\n"
     ]
    }
   ],
   "source": [
    "seurat_obj <- NormalizeData(seurat_obj, normalization.method = \"LogNormalize\", scale.factor = 10000)\n",
    "seurat_obj <- FindVariableFeatures(seurat_obj, selection.method = \"vst\", nfeatures = 3000)\n",
    "var_genes <- VariableFeatures(seurat_obj)"
   ]
  },
  {
   "cell_type": "code",
   "execution_count": 28,
   "id": "d5d3ab63-33dc-4a73-9703-6bfea7739e85",
   "metadata": {
    "vscode": {
     "languageId": "r"
    }
   },
   "outputs": [],
   "source": [
    "sp_counts <- seurat_obj$RNA$counts #[var_genes,]\n",
    "location <- data$obsm$spatial"
   ]
  },
  {
   "cell_type": "code",
   "execution_count": 29,
   "id": "a85d4e4a-d3eb-4882-893d-79822378fbb8",
   "metadata": {
    "vscode": {
     "languageId": "r"
    }
   },
   "outputs": [
    {
     "data": {
      "text/plain": [
       "An object of class Seurat \n",
       "27123 features across 13838 samples within 1 assay \n",
       "Active assay: RNA (27123 features, 3000 variable features)\n",
       " 2 layers present: counts, data"
      ]
     },
     "metadata": {},
     "output_type": "display_data"
    }
   ],
   "source": [
    "idx <- which(complete.cases(location))\n",
    "cells_to_keep <- rownames(seurat_obj@meta.data)[idx]\n",
    "seurat_obj <- subset(seurat_obj, cells = cells_to_keep)\n",
    "sp_counts <- seurat_obj$RNA$counts\n",
    "location <- location[idx,]\n",
    "seurat_obj"
   ]
  },
  {
   "cell_type": "code",
   "execution_count": 30,
   "id": "0cc1b3a9-da38-47d0-ab6c-8fb31eadf728",
   "metadata": {
    "vscode": {
     "languageId": "r"
    }
   },
   "outputs": [
    {
     "name": "stdout",
     "output_type": "stream",
     "text": [
      "## ===== SPARK-X INPUT INFORMATION ==== \n",
      "## number of total samples: 13838 \n",
      "## number of total genes: 26038 \n",
      "## Running with 5 cores \n",
      "## Testing With Projection Kernel\n",
      "## Testing With Gaussian Kernel 1\n",
      "## Testing With Gaussian Kernel 2\n",
      "## Testing With Gaussian Kernel 3\n",
      "## Testing With Gaussian Kernel 4\n",
      "## Testing With Gaussian Kernel 5\n",
      "## Testing With Cosine Kernel 1\n",
      "## Testing With Cosine Kernel 2\n",
      "## Testing With Cosine Kernel 3\n",
      "## Testing With Cosine Kernel 4\n",
      "## Testing With Cosine Kernel 5\n"
     ]
    },
    {
     "name": "stderr",
     "output_type": "stream",
     "text": [
      "Warning message in FUN(newX[, i], ...):\n",
      "“There are p-values that are exactly 1!”\n"
     ]
    }
   ],
   "source": [
    "sparkX <- sparkx(sp_counts,location,numCores=5,option=\"mixture\")"
   ]
  },
  {
   "cell_type": "code",
   "execution_count": 31,
   "id": "712a10d7-6af6-4694-8044-88ce17305582",
   "metadata": {
    "vscode": {
     "languageId": "r"
    }
   },
   "outputs": [
    {
     "data": {
      "text/html": [
       "<table class=\"dataframe\">\n",
       "<caption>A data.frame: 6 × 2</caption>\n",
       "<thead>\n",
       "\t<tr><th></th><th scope=col>combinedPval</th><th scope=col>adjustedPval</th></tr>\n",
       "\t<tr><th></th><th scope=col>&lt;dbl&gt;</th><th scope=col>&lt;dbl&gt;</th></tr>\n",
       "</thead>\n",
       "<tbody>\n",
       "\t<tr><th scope=row>Xkr4</th><td>3.899646e-118</td><td>1.179449e-115</td></tr>\n",
       "\t<tr><th scope=row>Gm1992</th><td> 1.434365e-30</td><td> 1.233971e-28</td></tr>\n",
       "\t<tr><th scope=row>Gm37381</th><td> 6.020032e-01</td><td> 1.000000e+00</td></tr>\n",
       "\t<tr><th scope=row>Rp1</th><td> 9.128706e-01</td><td> 1.000000e+00</td></tr>\n",
       "\t<tr><th scope=row>Sox17</th><td> 5.933517e-01</td><td> 1.000000e+00</td></tr>\n",
       "\t<tr><th scope=row>Gm37323</th><td> 9.363557e-01</td><td> 1.000000e+00</td></tr>\n",
       "</tbody>\n",
       "</table>\n"
      ],
      "text/latex": [
       "A data.frame: 6 × 2\n",
       "\\begin{tabular}{r|ll}\n",
       "  & combinedPval & adjustedPval\\\\\n",
       "  & <dbl> & <dbl>\\\\\n",
       "\\hline\n",
       "\tXkr4 & 3.899646e-118 & 1.179449e-115\\\\\n",
       "\tGm1992 &  1.434365e-30 &  1.233971e-28\\\\\n",
       "\tGm37381 &  6.020032e-01 &  1.000000e+00\\\\\n",
       "\tRp1 &  9.128706e-01 &  1.000000e+00\\\\\n",
       "\tSox17 &  5.933517e-01 &  1.000000e+00\\\\\n",
       "\tGm37323 &  9.363557e-01 &  1.000000e+00\\\\\n",
       "\\end{tabular}\n"
      ],
      "text/markdown": [
       "\n",
       "A data.frame: 6 × 2\n",
       "\n",
       "| <!--/--> | combinedPval &lt;dbl&gt; | adjustedPval &lt;dbl&gt; |\n",
       "|---|---|---|\n",
       "| Xkr4 | 3.899646e-118 | 1.179449e-115 |\n",
       "| Gm1992 |  1.434365e-30 |  1.233971e-28 |\n",
       "| Gm37381 |  6.020032e-01 |  1.000000e+00 |\n",
       "| Rp1 |  9.128706e-01 |  1.000000e+00 |\n",
       "| Sox17 |  5.933517e-01 |  1.000000e+00 |\n",
       "| Gm37323 |  9.363557e-01 |  1.000000e+00 |\n",
       "\n"
      ],
      "text/plain": [
       "        combinedPval  adjustedPval \n",
       "Xkr4    3.899646e-118 1.179449e-115\n",
       "Gm1992   1.434365e-30  1.233971e-28\n",
       "Gm37381  6.020032e-01  1.000000e+00\n",
       "Rp1      9.128706e-01  1.000000e+00\n",
       "Sox17    5.933517e-01  1.000000e+00\n",
       "Gm37323  9.363557e-01  1.000000e+00"
      ]
     },
     "metadata": {},
     "output_type": "display_data"
    }
   ],
   "source": [
    "head(sparkX$res_mtest)"
   ]
  },
  {
   "cell_type": "code",
   "execution_count": 32,
   "id": "b79e1643-e6b1-4e5d-bb16-89d6d4dbea7c",
   "metadata": {
    "vscode": {
     "languageId": "r"
    }
   },
   "outputs": [
    {
     "data": {
      "text/html": [
       "<table class=\"dataframe\">\n",
       "<caption>A data.frame: 6 × 28</caption>\n",
       "<thead>\n",
       "\t<tr><th></th><th scope=col>combinedPval</th><th scope=col>adjustedPval</th><th scope=col>gene_name</th><th scope=col>gene_ids</th><th scope=col>feature_types</th><th scope=col>genome</th><th scope=col>chrom</th><th scope=col>chromStart</th><th scope=col>chromEnd</th><th scope=col>name</th><th scope=col>⋯</th><th scope=col>gene_type</th><th scope=col>mgi_id</th><th scope=col>havana_gene</th><th scope=col>tag</th><th scope=col>n_counts</th><th scope=col>highly_variable</th><th scope=col>highly_variable_rank</th><th scope=col>means</th><th scope=col>variances</th><th scope=col>variances_norm</th></tr>\n",
       "\t<tr><th></th><th scope=col>&lt;dbl&gt;</th><th scope=col>&lt;dbl&gt;</th><th scope=col>&lt;chr&gt;</th><th scope=col>&lt;chr&gt;</th><th scope=col>&lt;fct&gt;</th><th scope=col>&lt;fct&gt;</th><th scope=col>&lt;fct&gt;</th><th scope=col>&lt;dbl&gt;</th><th scope=col>&lt;dbl&gt;</th><th scope=col>&lt;chr&gt;</th><th scope=col>⋯</th><th scope=col>&lt;fct&gt;</th><th scope=col>&lt;fct&gt;</th><th scope=col>&lt;fct&gt;</th><th scope=col>&lt;fct&gt;</th><th scope=col>&lt;dbl&gt;</th><th scope=col>&lt;lgl&gt;</th><th scope=col>&lt;dbl&gt;</th><th scope=col>&lt;dbl&gt;</th><th scope=col>&lt;dbl&gt;</th><th scope=col>&lt;dbl&gt;</th></tr>\n",
       "</thead>\n",
       "<tbody>\n",
       "\t<tr><th scope=row>1</th><td>0</td><td>0</td><td>3110035E14Rik</td><td>NA                </td><td>NA             </td><td>NA  </td><td>NA  </td><td>      NA</td><td>      NA</td><td>NA                </td><td>⋯</td><td>NA            </td><td>NA         </td><td>NA                  </td><td>NA               </td><td>     NA</td><td>   NA</td><td>  NA</td><td>       NA</td><td>        NA</td><td>      NA</td></tr>\n",
       "\t<tr><th scope=row>2</th><td>0</td><td>0</td><td>Cpa6         </td><td>ENSMUSG00000042501</td><td>Gene Expression</td><td>mm10</td><td>chr1</td><td>10324719</td><td>10719945</td><td>ENSMUSG00000042501</td><td>⋯</td><td>protein_coding</td><td>MGI:3045348</td><td>OTTMUSG00000024232.1</td><td>overlapping_locus</td><td> 165124</td><td> TRUE</td><td> 114</td><td> 2.368150</td><td>  53.62438</td><td>8.912715</td></tr>\n",
       "\t<tr><th scope=row>3</th><td>0</td><td>0</td><td>A830018L16Rik</td><td>ENSMUSG00000057715</td><td>Gene Expression</td><td>mm10</td><td>chr1</td><td>11414104</td><td>11975901</td><td>ENSMUSG00000057715</td><td>⋯</td><td>protein_coding</td><td>MGI:2444149</td><td>OTTMUSG00000033915.2</td><td>overlapping_locus</td><td>1504514</td><td> TRUE</td><td>1273</td><td>21.577208</td><td> 495.30218</td><td>1.970123</td></tr>\n",
       "\t<tr><th scope=row>4</th><td>0</td><td>0</td><td>Sulf1        </td><td>ENSMUSG00000016918</td><td>Gene Expression</td><td>mm10</td><td>chr1</td><td>12692276</td><td>12861192</td><td>ENSMUSG00000016918</td><td>⋯</td><td>protein_coding</td><td>MGI:2138563</td><td>OTTMUSG00000047995.3</td><td>NA               </td><td> 219512</td><td> TRUE</td><td> 162</td><td> 3.148164</td><td>  63.55406</td><td>7.049831</td></tr>\n",
       "\t<tr><th scope=row>5</th><td>0</td><td>0</td><td>Kcnq5        </td><td>ENSMUSG00000028033</td><td>Gene Expression</td><td>mm10</td><td>chr1</td><td>21398402</td><td>21961942</td><td>ENSMUSG00000028033</td><td>⋯</td><td>protein_coding</td><td>MGI:1924937</td><td>OTTMUSG00000019675.5</td><td>overlapping_locus</td><td>5522624</td><td> TRUE</td><td>1885</td><td>79.203522</td><td>5181.52616</td><td>1.596328</td></tr>\n",
       "\t<tr><th scope=row>6</th><td>0</td><td>0</td><td>Ogfrl1       </td><td>ENSMUSG00000026158</td><td>Gene Expression</td><td>mm10</td><td>chr1</td><td>23366423</td><td>23397772</td><td>ENSMUSG00000026158</td><td>⋯</td><td>protein_coding</td><td>MGI:1917405</td><td>OTTMUSG00000046267.3</td><td>NA               </td><td> 793479</td><td>FALSE</td><td> NaN</td><td>11.379795</td><td> 105.19379</td><td>1.374914</td></tr>\n",
       "</tbody>\n",
       "</table>\n"
      ],
      "text/latex": [
       "A data.frame: 6 × 28\n",
       "\\begin{tabular}{r|lllllllllllllllllllll}\n",
       "  & combinedPval & adjustedPval & gene\\_name & gene\\_ids & feature\\_types & genome & chrom & chromStart & chromEnd & name & ⋯ & gene\\_type & mgi\\_id & havana\\_gene & tag & n\\_counts & highly\\_variable & highly\\_variable\\_rank & means & variances & variances\\_norm\\\\\n",
       "  & <dbl> & <dbl> & <chr> & <chr> & <fct> & <fct> & <fct> & <dbl> & <dbl> & <chr> & ⋯ & <fct> & <fct> & <fct> & <fct> & <dbl> & <lgl> & <dbl> & <dbl> & <dbl> & <dbl>\\\\\n",
       "\\hline\n",
       "\t1 & 0 & 0 & 3110035E14Rik & NA                 & NA              & NA   & NA   &       NA &       NA & NA                 & ⋯ & NA             & NA          & NA                   & NA                &      NA &    NA &   NA &        NA &         NA &       NA\\\\\n",
       "\t2 & 0 & 0 & Cpa6          & ENSMUSG00000042501 & Gene Expression & mm10 & chr1 & 10324719 & 10719945 & ENSMUSG00000042501 & ⋯ & protein\\_coding & MGI:3045348 & OTTMUSG00000024232.1 & overlapping\\_locus &  165124 &  TRUE &  114 &  2.368150 &   53.62438 & 8.912715\\\\\n",
       "\t3 & 0 & 0 & A830018L16Rik & ENSMUSG00000057715 & Gene Expression & mm10 & chr1 & 11414104 & 11975901 & ENSMUSG00000057715 & ⋯ & protein\\_coding & MGI:2444149 & OTTMUSG00000033915.2 & overlapping\\_locus & 1504514 &  TRUE & 1273 & 21.577208 &  495.30218 & 1.970123\\\\\n",
       "\t4 & 0 & 0 & Sulf1         & ENSMUSG00000016918 & Gene Expression & mm10 & chr1 & 12692276 & 12861192 & ENSMUSG00000016918 & ⋯ & protein\\_coding & MGI:2138563 & OTTMUSG00000047995.3 & NA                &  219512 &  TRUE &  162 &  3.148164 &   63.55406 & 7.049831\\\\\n",
       "\t5 & 0 & 0 & Kcnq5         & ENSMUSG00000028033 & Gene Expression & mm10 & chr1 & 21398402 & 21961942 & ENSMUSG00000028033 & ⋯ & protein\\_coding & MGI:1924937 & OTTMUSG00000019675.5 & overlapping\\_locus & 5522624 &  TRUE & 1885 & 79.203522 & 5181.52616 & 1.596328\\\\\n",
       "\t6 & 0 & 0 & Ogfrl1        & ENSMUSG00000026158 & Gene Expression & mm10 & chr1 & 23366423 & 23397772 & ENSMUSG00000026158 & ⋯ & protein\\_coding & MGI:1917405 & OTTMUSG00000046267.3 & NA                &  793479 & FALSE &  NaN & 11.379795 &  105.19379 & 1.374914\\\\\n",
       "\\end{tabular}\n"
      ],
      "text/markdown": [
       "\n",
       "A data.frame: 6 × 28\n",
       "\n",
       "| <!--/--> | combinedPval &lt;dbl&gt; | adjustedPval &lt;dbl&gt; | gene_name &lt;chr&gt; | gene_ids &lt;chr&gt; | feature_types &lt;fct&gt; | genome &lt;fct&gt; | chrom &lt;fct&gt; | chromStart &lt;dbl&gt; | chromEnd &lt;dbl&gt; | name &lt;chr&gt; | ⋯ ⋯ | gene_type &lt;fct&gt; | mgi_id &lt;fct&gt; | havana_gene &lt;fct&gt; | tag &lt;fct&gt; | n_counts &lt;dbl&gt; | highly_variable &lt;lgl&gt; | highly_variable_rank &lt;dbl&gt; | means &lt;dbl&gt; | variances &lt;dbl&gt; | variances_norm &lt;dbl&gt; |\n",
       "|---|---|---|---|---|---|---|---|---|---|---|---|---|---|---|---|---|---|---|---|---|---|\n",
       "| 1 | 0 | 0 | 3110035E14Rik | NA                 | NA              | NA   | NA   |       NA |       NA | NA                 | ⋯ | NA             | NA          | NA                   | NA                |      NA |    NA |   NA |        NA |         NA |       NA |\n",
       "| 2 | 0 | 0 | Cpa6          | ENSMUSG00000042501 | Gene Expression | mm10 | chr1 | 10324719 | 10719945 | ENSMUSG00000042501 | ⋯ | protein_coding | MGI:3045348 | OTTMUSG00000024232.1 | overlapping_locus |  165124 |  TRUE |  114 |  2.368150 |   53.62438 | 8.912715 |\n",
       "| 3 | 0 | 0 | A830018L16Rik | ENSMUSG00000057715 | Gene Expression | mm10 | chr1 | 11414104 | 11975901 | ENSMUSG00000057715 | ⋯ | protein_coding | MGI:2444149 | OTTMUSG00000033915.2 | overlapping_locus | 1504514 |  TRUE | 1273 | 21.577208 |  495.30218 | 1.970123 |\n",
       "| 4 | 0 | 0 | Sulf1         | ENSMUSG00000016918 | Gene Expression | mm10 | chr1 | 12692276 | 12861192 | ENSMUSG00000016918 | ⋯ | protein_coding | MGI:2138563 | OTTMUSG00000047995.3 | NA                |  219512 |  TRUE |  162 |  3.148164 |   63.55406 | 7.049831 |\n",
       "| 5 | 0 | 0 | Kcnq5         | ENSMUSG00000028033 | Gene Expression | mm10 | chr1 | 21398402 | 21961942 | ENSMUSG00000028033 | ⋯ | protein_coding | MGI:1924937 | OTTMUSG00000019675.5 | overlapping_locus | 5522624 |  TRUE | 1885 | 79.203522 | 5181.52616 | 1.596328 |\n",
       "| 6 | 0 | 0 | Ogfrl1        | ENSMUSG00000026158 | Gene Expression | mm10 | chr1 | 23366423 | 23397772 | ENSMUSG00000026158 | ⋯ | protein_coding | MGI:1917405 | OTTMUSG00000046267.3 | NA                |  793479 | FALSE |  NaN | 11.379795 |  105.19379 | 1.374914 |\n",
       "\n"
      ],
      "text/plain": [
       "  combinedPval adjustedPval gene_name     gene_ids           feature_types  \n",
       "1 0            0            3110035E14Rik NA                 NA             \n",
       "2 0            0            Cpa6          ENSMUSG00000042501 Gene Expression\n",
       "3 0            0            A830018L16Rik ENSMUSG00000057715 Gene Expression\n",
       "4 0            0            Sulf1         ENSMUSG00000016918 Gene Expression\n",
       "5 0            0            Kcnq5         ENSMUSG00000028033 Gene Expression\n",
       "6 0            0            Ogfrl1        ENSMUSG00000026158 Gene Expression\n",
       "  genome chrom chromStart chromEnd name               ⋯ gene_type     \n",
       "1 NA     NA          NA         NA NA                 ⋯ NA            \n",
       "2 mm10   chr1  10324719   10719945 ENSMUSG00000042501 ⋯ protein_coding\n",
       "3 mm10   chr1  11414104   11975901 ENSMUSG00000057715 ⋯ protein_coding\n",
       "4 mm10   chr1  12692276   12861192 ENSMUSG00000016918 ⋯ protein_coding\n",
       "5 mm10   chr1  21398402   21961942 ENSMUSG00000028033 ⋯ protein_coding\n",
       "6 mm10   chr1  23366423   23397772 ENSMUSG00000026158 ⋯ protein_coding\n",
       "  mgi_id      havana_gene          tag               n_counts highly_variable\n",
       "1 NA          NA                   NA                     NA     NA          \n",
       "2 MGI:3045348 OTTMUSG00000024232.1 overlapping_locus  165124   TRUE          \n",
       "3 MGI:2444149 OTTMUSG00000033915.2 overlapping_locus 1504514   TRUE          \n",
       "4 MGI:2138563 OTTMUSG00000047995.3 NA                 219512   TRUE          \n",
       "5 MGI:1924937 OTTMUSG00000019675.5 overlapping_locus 5522624   TRUE          \n",
       "6 MGI:1917405 OTTMUSG00000046267.3 NA                 793479  FALSE          \n",
       "  highly_variable_rank means     variances  variances_norm\n",
       "1   NA                        NA         NA       NA      \n",
       "2  114                  2.368150   53.62438 8.912715      \n",
       "3 1273                 21.577208  495.30218 1.970123      \n",
       "4  162                  3.148164   63.55406 7.049831      \n",
       "5 1885                 79.203522 5181.52616 1.596328      \n",
       "6  NaN                 11.379795  105.19379 1.374914      "
      ]
     },
     "metadata": {},
     "output_type": "display_data"
    }
   ],
   "source": [
    "library(tidyverse)\n",
    "df <- sparkX$res_mtest %>% arrange(adjustedPval,combinedPval)\n",
    "df$gene_name <- rownames(df)\n",
    "df <- df %>% left_join(data$var, by=\"gene_name\")\n",
    "df |> head()"
   ]
  },
  {
   "cell_type": "code",
   "execution_count": 34,
   "id": "12813f73-d04a-407d-93e0-ad24ded1b8fb",
   "metadata": {
    "vscode": {
     "languageId": "r"
    }
   },
   "outputs": [],
   "source": [
    "df %>% write_csv(\"/home/bingxing2/ailab/group/ai4bio/sunjianle/mouse_pmc/svg_rna.csv\")"
   ]
  },
  {
   "cell_type": "code",
   "execution_count": 79,
   "id": "2447f3f3-d7bd-440b-a68c-4a736612b762",
   "metadata": {
    "vscode": {
     "languageId": "r"
    }
   },
   "outputs": [
    {
     "name": "stderr",
     "output_type": "stream",
     "text": [
      "Warning message:\n",
      "“Data is of class dgRMatrix. Coercing to dgCMatrix.”\n"
     ]
    },
    {
     "data": {
      "text/plain": [
       "An object of class Seurat \n",
       "254 features across 6319 samples within 1 assay \n",
       "Active assay: RNA (254 features, 0 variable features)\n",
       " 1 layer present: counts"
      ]
     },
     "metadata": {},
     "output_type": "display_data"
    }
   ],
   "source": [
    "data <- read_h5ad(\"/home/bingxing2/ailab/group/ai4bio/sunjianle/mouse_pmc/st_processed.h5ad\")\n",
    "seurat_obj <- CreateSeuratObject(counts = t(data$layers[[\"counts\"]]), meta.data = data$obs)\n",
    "sp_counts <- seurat_obj$RNA$counts\n",
    "location <- data$obsm$X_spatial\n",
    "seurat_obj"
   ]
  },
  {
   "cell_type": "code",
   "execution_count": 80,
   "id": "bd790245-48ba-4353-b567-33a0b8741068",
   "metadata": {
    "vscode": {
     "languageId": "r"
    }
   },
   "outputs": [
    {
     "name": "stdout",
     "output_type": "stream",
     "text": [
      "## ===== SPARK-X INPUT INFORMATION ==== \n",
      "## number of total samples: 6319 \n",
      "## number of total genes: 254 \n",
      "## Running with 5 cores \n",
      "## Testing With Projection Kernel\n",
      "## Testing With Gaussian Kernel 1\n",
      "## Testing With Gaussian Kernel 2\n",
      "## Testing With Gaussian Kernel 3\n",
      "## Testing With Gaussian Kernel 4\n",
      "## Testing With Gaussian Kernel 5\n",
      "## Testing With Cosine Kernel 1\n",
      "## Testing With Cosine Kernel 2\n",
      "## Testing With Cosine Kernel 3\n",
      "## Testing With Cosine Kernel 4\n",
      "## Testing With Cosine Kernel 5\n"
     ]
    }
   ],
   "source": [
    "sparkX2 <- sparkx(sp_counts,location,numCores=5,option=\"mixture\")"
   ]
  },
  {
   "cell_type": "code",
   "execution_count": 81,
   "id": "276490a3-4ce9-44eb-af46-84a9ff560130",
   "metadata": {
    "vscode": {
     "languageId": "r"
    }
   },
   "outputs": [],
   "source": [
    "library(tidyverse)\n",
    "df <- sparkX2$res_mtest %>% arrange(adjustedPval,combinedPval)\n",
    "df$gene_name <- rownames(df)\n",
    "data$var$gene_name <- rownames(data$var)\n",
    "df <- df %>% left_join(data$var, by=\"gene_name\")\n",
    "df %>% write_csv(\"/home/bingxing2/ailab/group/ai4bio/sunjianle/mouse_pmc/svg_st.csv\")"
   ]
  },
  {
   "cell_type": "code",
   "execution_count": 20,
   "id": "32c03d71-c36d-4d9f-aab9-d8c9662c7ed6",
   "metadata": {
    "vscode": {
     "languageId": "r"
    }
   },
   "outputs": [
    {
     "name": "stderr",
     "output_type": "stream",
     "text": [
      "Warning message:\n",
      "“Data is of class matrix. Coercing to dgCMatrix.”\n"
     ]
    },
    {
     "data": {
      "text/plain": [
       "An object of class Seurat \n",
       "20563 features across 7102 samples within 1 assay \n",
       "Active assay: RNA (20563 features, 0 variable features)\n",
       " 1 layer present: counts"
      ]
     },
     "metadata": {},
     "output_type": "display_data"
    }
   ],
   "source": [
    "data <- read_h5ad(\"/home/bingxing2/ailab/group/ai4bio/sunjianle/mouse_pmc/atac_gas_imputed.h5ad\")\n",
    "seurat_obj <- CreateSeuratObject(counts = t(data$X), meta.data = data$obs)\n",
    "sp_counts <- seurat_obj$RNA$counts\n",
    "location <- data$obsm$spatial\n",
    "seurat_obj"
   ]
  },
  {
   "cell_type": "code",
   "execution_count": 21,
   "id": "a9569d59-a312-4d53-8fae-3f75546c42e9",
   "metadata": {
    "vscode": {
     "languageId": "r"
    }
   },
   "outputs": [
    {
     "data": {
      "text/plain": [
       "An object of class Seurat \n",
       "20563 features across 7051 samples within 1 assay \n",
       "Active assay: RNA (20563 features, 0 variable features)\n",
       " 1 layer present: counts"
      ]
     },
     "metadata": {},
     "output_type": "display_data"
    }
   ],
   "source": [
    "idx <- which(complete.cases(location))\n",
    "cells_to_keep <- rownames(seurat_obj@meta.data)[idx]\n",
    "seurat_obj <- subset(seurat_obj, cells = cells_to_keep)\n",
    "sp_counts <- seurat_obj$RNA$counts\n",
    "location <- location[idx,]\n",
    "seurat_obj"
   ]
  },
  {
   "cell_type": "code",
   "execution_count": 22,
   "id": "e9b1af71-57a0-405f-83c3-d23a88129aa8",
   "metadata": {
    "vscode": {
     "languageId": "r"
    }
   },
   "outputs": [
    {
     "name": "stdout",
     "output_type": "stream",
     "text": [
      "## ===== SPARK-X INPUT INFORMATION ==== \n",
      "## number of total samples: 7051 \n",
      "## number of total genes: 20263 \n",
      "## Running with 5 cores \n",
      "## Testing With Projection Kernel\n",
      "## Testing With Gaussian Kernel 1\n",
      "## Testing With Gaussian Kernel 2\n",
      "## Testing With Gaussian Kernel 3\n",
      "## Testing With Gaussian Kernel 4\n",
      "## Testing With Gaussian Kernel 5\n",
      "## Testing With Cosine Kernel 1\n",
      "## Testing With Cosine Kernel 2\n",
      "## Testing With Cosine Kernel 3\n",
      "## Testing With Cosine Kernel 4\n",
      "## Testing With Cosine Kernel 5\n"
     ]
    },
    {
     "name": "stderr",
     "output_type": "stream",
     "text": [
      "Warning message in FUN(newX[, i], ...):\n",
      "“There are p-values that are exactly 1!”\n"
     ]
    }
   ],
   "source": [
    "sparkX3 <- sparkx(sp_counts,location,numCores=5,option=\"mixture\")"
   ]
  },
  {
   "cell_type": "code",
   "execution_count": 23,
   "id": "9deebd5b-60a0-4cc1-8201-695acb26717e",
   "metadata": {
    "vscode": {
     "languageId": "r"
    }
   },
   "outputs": [],
   "source": [
    "data$var$gene_name <- rownames(data$var)"
   ]
  },
  {
   "cell_type": "code",
   "execution_count": 24,
   "id": "ee4b8384-a148-46f4-a9ce-7d7d080ddd5a",
   "metadata": {
    "vscode": {
     "languageId": "r"
    }
   },
   "outputs": [
    {
     "name": "stderr",
     "output_type": "stream",
     "text": [
      "── \u001b[1mAttaching core tidyverse packages\u001b[22m ──────────────────────── tidyverse 2.0.0 ──\n",
      "\u001b[32m✔\u001b[39m \u001b[34mdplyr    \u001b[39m 1.1.4     \u001b[32m✔\u001b[39m \u001b[34mreadr    \u001b[39m 2.1.5\n",
      "\u001b[32m✔\u001b[39m \u001b[34mforcats  \u001b[39m 1.0.0     \u001b[32m✔\u001b[39m \u001b[34mstringr  \u001b[39m 1.5.1\n",
      "\u001b[32m✔\u001b[39m \u001b[34mggplot2  \u001b[39m 3.5.2     \u001b[32m✔\u001b[39m \u001b[34mtibble   \u001b[39m 3.3.0\n",
      "\u001b[32m✔\u001b[39m \u001b[34mlubridate\u001b[39m 1.9.4     \u001b[32m✔\u001b[39m \u001b[34mtidyr    \u001b[39m 1.3.1\n",
      "\u001b[32m✔\u001b[39m \u001b[34mpurrr    \u001b[39m 1.1.0     \n",
      "── \u001b[1mConflicts\u001b[22m ────────────────────────────────────────── tidyverse_conflicts() ──\n",
      "\u001b[31m✖\u001b[39m \u001b[34mdplyr\u001b[39m::\u001b[32mfilter()\u001b[39m   masks \u001b[34mstats\u001b[39m::filter()\n",
      "\u001b[31m✖\u001b[39m \u001b[34mdplyr\u001b[39m::\u001b[32mlag()\u001b[39m      masks \u001b[34mstats\u001b[39m::lag()\n",
      "\u001b[31m✖\u001b[39m \u001b[34mreadr\u001b[39m::\u001b[32mread_csv()\u001b[39m masks \u001b[34manndata\u001b[39m::read_csv()\n",
      "\u001b[36mℹ\u001b[39m Use the conflicted package (\u001b[3m\u001b[34m<http://conflicted.r-lib.org/>\u001b[39m\u001b[23m) to force all conflicts to become errors\n"
     ]
    }
   ],
   "source": [
    "library(tidyverse)\n",
    "df <- sparkX3$res_mtest %>% arrange(adjustedPval,combinedPval)\n",
    "df$gene_name <- rownames(df)\n",
    "df <- df %>% left_join(data$var, by=\"gene_name\")\n",
    "df %>% write_csv(\"/home/bingxing2/ailab/group/ai4bio/sunjianle/mouse_pmc/svg_atac_gas.csv\")"
   ]
  },
  {
   "cell_type": "code",
   "execution_count": null,
   "id": "ccece164",
   "metadata": {
    "vscode": {
     "languageId": "r"
    }
   },
   "outputs": [],
   "source": []
  }
 ],
 "metadata": {
  "kernelspec": {
   "display_name": "R [conda env:.conda-r4]",
   "language": "R",
   "name": "conda-env-.conda-r4-r"
  },
  "language_info": {
   "codemirror_mode": "r",
   "file_extension": ".r",
   "mimetype": "text/x-r-source",
   "name": "R",
   "pygments_lexer": "r",
   "version": "4.4.2"
  }
 },
 "nbformat": 4,
 "nbformat_minor": 5
}
